# xmcd
#
# Track frame offsets:
#	150
#	8135
#	57294
#	88703
#	129683
#	148181
#	184071
#	202209
#
# Disc length: 3142 seconds
#
# Revision: 1
# Processed by: cddbd v1.5.2PL0 Copyright (c) Steve Scherf et al.
# Submitted via: audiograbber 1.83.01
#
DISCID=760c4408
DTITLE=Grateful Dead - 82-08-06 St Paul Civic Centre Arena, St Paul MN
DYEAR=1900
DGENRE=
TTITLE0=Drums
TTITLE1=Space
TTITLE2=Truckin'
TTITLE3=Wharf Rat
TTITLE4=Around and Around
TTITLE5=Going Down The Road Feeling Bad
TTITLE6=Johnny B Goode
TTITLE7=It's All Over Now
EXTD=
EXTT0=
EXTT1=
EXTT2=
EXTT3=
EXTT4=
EXTT5=
EXTT6=
EXTT7=
PLAYORDER=
